<svg width="125" height="125" viewBox="0 0 125 125" fill="none" xmlns="http://www.w3.org/2000/svg">
<circle cx="62.5" cy="62.5" r="62.5" fill="white"/>
<path d="M26 38.3069V42.3637L28.0755 36.3978V34.4887L29.5849 31.9432L31.4717 29.0796L34.3019 26.8523L36.3774 23.1932L37.3208 25.1023L40.151 24.1477L41.9435 22.3977L44.7737 21.125L43.8303 23.1932H47.6039L50.6228 21.125H55.1511V22.3977L50.6228 23.1932L56.0945 25.1023L57.4152 24.1477H59.6794H61.9436L63.2643 25.1023L58.3587 25.8977L61.9436 27.9659H64.8681L66.0002 29.0796L67.887 30.5114H63.2643L66.0002 33.5341H67.887L70.1512 35.4432L71.0946 36.3978L66.0002 35.4432L67.887 40.6137L73.7361 43.1591L79.0191 46.6591V42.3637L77.887 34.4887L74.8682 27.9659L70.1512 22.3977L63.2643 17.8636L55.1511 15H47.6039L40.151 17.8636L34.3019 21.125L29.5849 25.8977L26 31.9432V35.4432V38.3069Z" fill="#4C387F" stroke="#4C387F"/>
<path d="M44.113 44.3522L41.4714 39.9772L55.9055 41.4886L65.2451 42.9204L71.4716 44.3522L77.0376 46.8182L80.2452 51.4318L81.4716 53.6591L84.1132 56.6023L86.3773 59.0682L89.5849 60.8977L91.849 62.5682L94.7736 64.4773L96 66.5455V69.25L93.9245 67.1818L91.849 65.75L88.9245 65.9091V67.1818L90.8113 67.9773L93.5472 69.25V72.3523L90.8113 73.5455L90.1509 75.2159H85.9056L85.1509 77.3637L81.4716 78.9546H77.0376L80.8112 75.2159L82.2263 72.5114L80.2452 69.25L77.0376 67.9773L71.4716 65.9091L68.7357 64.0795L67.5093 60.1023V55.9659L65.2451 60.1023V64.0795L68.7357 67.9773L67.5093 72.3523L71.4716 78.9546L76.2829 84.2046L65.2451 85L62.8866 81.2614L61.0942 77.5227L60.1508 72.3523L57.6979 75.2159V80.2273L59.5847 85L52.6979 82.5341L51.2828 77.5227L52.6979 72.3523L54.679 67.1818L51.2828 69.25L49.3017 72.3523L46.8488 75.2159V71.3182L48.0752 65.9091L51.2828 60.1023L54.679 55.9659H60.1508L65.2451 54.9318L67.5093 52.4659V49.5227L65.2451 46.8182L49.5847 45.3863L54.679 49.5227H59.5847H64.0187L65.2451 51.4318L62.7923 52.4659L57.6979 53.6591L52.6979 52.4659L48.0752 48.8863L44.113 44.3522Z" fill="#4C387F" stroke="#4C387F"/>
<path d="M79.9621 54.2158L76.7546 52.7044L75.2451 54.2158L76.7546 56.284L78.7357 57.9544L80.9055 59.3862L83.6414 60.4203V58.3521L81.6602 56.284L79.9621 54.2158Z" fill="white" stroke="#4C387F"/>
<path d="M52.6697 55.5503L50.7408 53.9319L48.8579 55.4022L46.3307 57.9815L44.3405 60.7312L42.7218 63.9482L42.0273 66.9137L41.2964 70.0353L41.2864 72.9525L42.4613 76.1481L42.7283 72.5439L43.0549 70.328L43.7858 67.2065L45.4058 64.3951L47.4873 61.2551L50.4372 57.6921L52.6697 55.5503Z" fill="#4C387F" stroke="#4C387F"/>
<path d="M32.3159 80.8747L32.856 82.3651L24.0581 85.5539C23.2729 85.8385 22.5536 85.936 21.9002 85.8465C21.2467 85.757 20.6827 85.5014 20.208 85.0796C19.7334 84.6579 19.3668 84.0905 19.1083 83.3773C18.8644 82.7043 18.7695 82.061 18.8236 81.4476C18.8818 80.8328 19.0848 80.2923 19.4326 79.8263C19.7804 79.3603 20.2688 79.0133 20.8978 78.7853L21.4293 80.2517C21.0807 80.378 20.8075 80.5745 20.6095 80.8411C20.417 81.1104 20.3038 81.4233 20.2699 81.7801C20.2361 82.1368 20.2896 82.5095 20.4304 82.8981C20.5858 83.3268 20.8081 83.6587 21.0972 83.8939C21.3864 84.129 21.7336 84.2615 22.1388 84.2914C22.5494 84.3239 23.0092 84.2479 23.518 84.0635L32.3159 80.8747Z" fill="#4C387F"/>
<path d="M32.075 96.9353L36.4938 93.1723L37.4718 94.3208L29.9968 100.686L29.0188 99.5379L30.2841 98.4604L30.2178 98.3825C29.689 98.5306 29.1341 98.5329 28.5531 98.3896C27.9753 98.2436 27.4461 97.8883 26.9653 97.3237C26.5675 96.8566 26.316 96.3542 26.211 95.8168C26.1092 95.2766 26.1775 94.7259 26.416 94.1646C26.6577 93.6006 27.0965 93.0478 27.7324 92.5063L32.4821 88.4615L33.4602 89.61L28.7883 93.5885C28.2432 94.0526 27.9384 94.5753 27.8736 95.1566C27.8117 95.7411 27.9837 96.2718 28.3899 96.7487C28.633 97.0342 28.9533 97.2624 29.3507 97.4333C29.7509 97.6075 30.1875 97.6667 30.6605 97.6109C31.1363 97.5583 31.6078 97.3331 32.075 96.9353Z" fill="#4C387F"/>
<path d="M45.3816 96.1229L38.3683 107.177L37.0945 106.368L44.1078 95.3147L45.3816 96.1229Z" fill="#4C387F"/>
<path d="M50.5434 112.704C49.6305 112.456 48.8978 112.041 48.3453 111.458C47.798 110.872 47.4444 110.166 47.2844 109.341C47.1297 108.513 47.1843 107.614 47.4481 106.644C47.7118 105.673 48.1211 104.866 48.676 104.222C49.236 103.575 49.8912 103.13 50.6414 102.888C51.3969 102.643 52.2024 102.637 53.0577 102.869C53.5512 103.003 54.0161 103.218 54.4525 103.513C54.8889 103.808 55.2542 104.195 55.5484 104.672C55.8437 105.145 56.0264 105.716 56.0965 106.384C56.1666 107.052 56.0815 107.829 55.8412 108.713L55.6736 109.33L48.3703 107.345L48.7123 106.086L54.5352 107.669C54.6805 107.134 54.7032 106.628 54.6034 106.151C54.5077 105.674 54.2974 105.262 53.9727 104.913C53.6521 104.565 53.2286 104.32 52.7023 104.177C52.1225 104.019 51.5817 104.027 51.0799 104.199C50.5833 104.369 50.1599 104.652 49.8097 105.047C49.4594 105.441 49.2134 105.9 49.0714 106.422L48.8434 107.261C48.6489 107.977 48.6074 108.617 48.7189 109.181C48.8357 109.743 49.0809 110.214 49.4546 110.594C49.8294 110.969 50.3108 111.237 50.8989 111.397C51.2813 111.501 51.6413 111.541 51.9787 111.518C52.3214 111.492 52.6355 111.401 52.9209 111.244C53.2074 111.084 53.4571 110.856 53.6698 110.56L54.9689 111.337C54.6912 111.774 54.3284 112.126 53.8805 112.393C53.4338 112.655 52.926 112.818 52.3572 112.88C51.7895 112.937 51.1849 112.879 50.5434 112.704Z" fill="#4C387F"/>
<path d="M63.5511 114.319L62.0439 101.315L66.5902 100.788C67.4961 100.683 68.2613 100.753 68.886 100.998C69.5102 101.239 69.9967 101.605 70.3454 102.097C70.6936 102.584 70.9044 103.145 70.978 103.78C71.0428 104.339 70.9968 104.812 70.84 105.199C70.6875 105.586 70.4627 105.903 70.1655 106.152C69.8725 106.401 69.5457 106.597 69.185 106.742L69.1997 106.869C69.6005 106.848 70.0167 106.942 70.4483 107.149C70.8799 107.357 71.2586 107.682 71.5845 108.124C71.9103 108.567 72.113 109.131 72.1925 109.817C72.268 110.469 72.1878 111.072 71.9518 111.627C71.7159 112.182 71.296 112.649 70.6921 113.028C70.0882 113.407 69.2741 113.656 68.2497 113.774L63.5511 114.319ZM64.9638 112.74L68.0878 112.378C69.1164 112.258 69.8236 111.975 70.2092 111.527C70.5986 111.074 70.7602 110.562 70.694 109.991C70.643 109.55 70.4837 109.157 70.2162 108.811C69.9481 108.46 69.5937 108.196 69.1529 108.02C68.7115 107.84 68.2073 107.782 67.64 107.848L64.4399 108.219L64.9638 112.74ZM64.2809 106.847L67.2017 106.509C67.6758 106.454 68.0926 106.311 68.4519 106.081C68.8156 105.85 69.0899 105.552 69.275 105.187C69.4644 104.822 69.5325 104.411 69.4795 103.954C69.4133 103.382 69.1582 102.921 68.7142 102.569C68.2697 102.213 67.6156 102.085 66.7521 102.185L63.7805 102.53L64.2809 106.847Z" fill="#4C387F"/>
<path d="M84.4972 108.82C83.7177 109.242 82.9334 109.426 82.1442 109.374C81.3588 109.319 80.6206 109.048 79.9297 108.559C79.2426 108.069 78.6576 107.377 78.1748 106.486C77.688 105.586 77.426 104.713 77.3889 103.866C77.3556 103.016 77.5308 102.248 77.9146 101.56C78.3021 100.871 78.8856 100.315 79.6651 99.8931C80.4446 99.4712 81.227 99.2875 82.0125 99.342C82.8017 99.3945 83.5409 99.668 84.23 100.162C84.9229 100.655 85.5128 101.35 85.9997 102.25C86.4825 103.142 86.7395 104.01 86.7708 104.856C86.8059 105.7 86.6297 106.466 86.2421 107.156C85.8584 107.843 85.2767 108.398 84.4972 108.82ZM83.8521 107.628C84.4442 107.308 84.8493 106.892 85.0672 106.382C85.2851 105.871 85.352 105.319 85.2679 104.725C85.1837 104.131 84.9854 103.545 84.673 102.968C84.3606 102.391 83.9777 101.903 83.5243 101.504C83.0708 101.105 82.5698 100.855 82.0212 100.755C81.4726 100.654 80.9023 100.764 80.3102 101.085C79.7181 101.405 79.3141 101.823 79.0982 102.337C78.8823 102.851 78.8174 103.407 78.9036 104.005C78.9898 104.603 79.189 105.19 79.5014 105.767C79.8139 106.345 80.1958 106.831 80.6472 107.226C81.0986 107.621 81.5976 107.867 82.1441 107.964C82.6907 108.061 83.26 107.949 83.8521 107.628Z" fill="#4C387F"/>
<path d="M97.6905 98.1956C97.1158 98.8704 96.451 99.3258 95.696 99.5616C94.9438 99.7942 94.1574 99.8074 93.3368 99.6011C92.5189 99.3915 91.7239 98.958 90.9518 98.3004C90.1731 97.6374 89.6136 96.9174 89.2732 96.1406C88.9356 95.3606 88.8217 94.5807 88.9315 93.8011C89.0441 93.0182 89.3877 92.2893 89.9624 91.6145C90.5371 90.9397 91.2005 90.486 91.9527 90.2534C92.7077 90.0175 93.4957 90.0057 94.3168 90.218C95.1407 90.4271 95.9419 90.8631 96.7206 91.5262C97.4927 92.1838 98.046 92.9012 98.3804 93.6785C98.7175 94.4525 98.8298 95.231 98.7172 96.0139C98.6074 96.7935 98.2652 97.5208 97.6905 98.1956ZM96.6588 97.317C97.0953 96.8044 97.3231 96.2707 97.3421 95.716C97.3611 95.1613 97.2242 94.6221 96.9313 94.0984C96.6384 93.5748 96.2422 93.1002 95.7425 92.6747C95.2429 92.2492 94.7096 91.9323 94.1428 91.7238C93.5759 91.5153 93.0185 91.4632 92.4707 91.5676C91.9228 91.672 91.4306 91.9805 90.9941 92.4931C90.5576 93.0057 90.3314 93.5407 90.3157 94.0982C90.2999 94.6557 90.4401 95.1976 90.7362 95.7241C91.0323 96.2505 91.4302 96.7265 91.9298 97.1519C92.4294 97.5774 92.9611 97.893 93.5247 98.0987C94.0884 98.3045 94.6425 98.3538 95.1871 98.2466C95.7317 98.1395 96.2222 97.8296 96.6588 97.317Z" fill="#4C387F"/>
<path d="M101.714 84.6952L99.9504 84.0832L100.055 83.7948L97.4081 78.2666L98.0441 76.5118L100.835 82.3916L100.792 82.5117L101.714 84.6952ZM104.6 87.2371L92.2926 82.7763L92.8066 81.358L105.114 85.8188L104.6 87.2371ZM106.726 81.3718L100.852 83.3221L100.232 81.9553L107.379 79.5689L106.726 81.3718Z" fill="#4C387F"/>
</svg>
